<mxfile host="Electron" modified="2024-08-09T08:28:51.263Z" agent="Mozilla/5.0 (Windows NT 10.0; Win64; x64) AppleWebKit/537.36 (KHTML, like Gecko) draw.io/24.5.3 Chrome/124.0.6367.207 Electron/30.0.6 Safari/537.36" etag="dY91DN6roiE7mB6i0e-b" version="24.5.3" type="device">
  <diagram name="class" id="rZabrxJIAab4PVTKNIRW">
    <mxGraphModel dx="2836" dy="1736" grid="1" gridSize="10" guides="1" tooltips="1" connect="1" arrows="1" fold="1" page="1" pageScale="1" pageWidth="1169" pageHeight="827" math="0" shadow="0">
      <root>
        <mxCell id="0" />
        <mxCell id="1" parent="0" />
        <mxCell id="CNBk-YOE27m4dfSXoJbW-1" value="UserInterface" style="shape=folder;fontStyle=1;spacingTop=10;tabWidth=40;tabHeight=14;tabPosition=left;html=1;whiteSpace=wrap;align=left;verticalAlign=top;" vertex="1" parent="1">
          <mxGeometry x="220" y="70" width="760" height="880" as="geometry" />
        </mxCell>
        <mxCell id="CNBk-YOE27m4dfSXoJbW-2" value="DriverUI" style="swimlane;fontStyle=0;childLayout=stackLayout;horizontal=1;startSize=30;horizontalStack=0;resizeParent=1;resizeParentMax=0;resizeLast=0;collapsible=1;marginBottom=0;whiteSpace=wrap;html=1;" vertex="1" parent="1">
          <mxGeometry x="240" y="190" width="230" height="130" as="geometry" />
        </mxCell>
        <mxCell id="CNBk-YOE27m4dfSXoJbW-3" value="Display of the controls for the players. Forwarding of control commands. Display of vehicle and game information.&amp;nbsp;" style="text;strokeColor=none;fillColor=none;align=left;verticalAlign=middle;spacingLeft=4;spacingRight=4;overflow=hidden;points=[[0,0.5],[1,0.5]];portConstraint=eastwest;rotatable=0;whiteSpace=wrap;html=1;" vertex="1" parent="CNBk-YOE27m4dfSXoJbW-2">
          <mxGeometry y="30" width="230" height="100" as="geometry" />
        </mxCell>
        <mxCell id="CNBk-YOE27m4dfSXoJbW-4" value="StaffUI" style="swimlane;fontStyle=0;childLayout=stackLayout;horizontal=1;startSize=30;horizontalStack=0;resizeParent=1;resizeParentMax=0;resizeLast=0;collapsible=1;marginBottom=0;whiteSpace=wrap;html=1;" vertex="1" parent="1">
          <mxGeometry x="240" y="360" width="230" height="130" as="geometry" />
        </mxCell>
        <mxCell id="CNBk-YOE27m4dfSXoJbW-5" value="Display of the control elements for the operator. Forwarding of control commands. Display of vehicles and players.&amp;nbsp;" style="text;strokeColor=none;fillColor=none;align=left;verticalAlign=middle;spacingLeft=4;spacingRight=4;overflow=hidden;points=[[0,0.5],[1,0.5]];portConstraint=eastwest;rotatable=0;whiteSpace=wrap;html=1;" vertex="1" parent="CNBk-YOE27m4dfSXoJbW-4">
          <mxGeometry y="30" width="230" height="100" as="geometry" />
        </mxCell>
        <mxCell id="CNBk-YOE27m4dfSXoJbW-6" value="CarMap" style="swimlane;fontStyle=0;childLayout=stackLayout;horizontal=1;startSize=30;horizontalStack=0;resizeParent=1;resizeParentMax=0;resizeLast=0;collapsible=1;marginBottom=0;whiteSpace=wrap;html=1;" vertex="1" parent="1">
          <mxGeometry x="240" y="650" width="230" height="130" as="geometry" />
        </mxCell>
        <mxCell id="CNBk-YOE27m4dfSXoJbW-7" value="Display virtual track and vehicles on it." style="text;strokeColor=none;fillColor=none;align=left;verticalAlign=middle;spacingLeft=4;spacingRight=4;overflow=hidden;points=[[0,0.5],[1,0.5]];portConstraint=eastwest;rotatable=0;whiteSpace=wrap;html=1;" vertex="1" parent="CNBk-YOE27m4dfSXoJbW-6">
          <mxGeometry y="30" width="230" height="100" as="geometry" />
        </mxCell>
        <mxCell id="CNBk-YOE27m4dfSXoJbW-8" value="" style="rounded=0;orthogonalLoop=1;jettySize=auto;html=1;endArrow=halfCircle;endFill=0;endSize=6;strokeWidth=1;sketch=0;fontSize=12;curved=1;exitX=0.002;exitY=0.241;exitDx=0;exitDy=0;exitPerimeter=0;" edge="1" parent="1" source="CNBk-YOE27m4dfSXoJbW-3">
          <mxGeometry relative="1" as="geometry">
            <mxPoint x="145" y="485" as="sourcePoint" />
            <mxPoint x="180" y="244" as="targetPoint" />
          </mxGeometry>
        </mxCell>
        <mxCell id="CNBk-YOE27m4dfSXoJbW-9" value="BehaviourManager" style="edgeLabel;html=1;align=center;verticalAlign=middle;resizable=0;points=[];" vertex="1" connectable="0" parent="CNBk-YOE27m4dfSXoJbW-8">
          <mxGeometry x="0.72" y="2" relative="1" as="geometry">
            <mxPoint x="-58" y="-2" as="offset" />
          </mxGeometry>
        </mxCell>
        <mxCell id="CNBk-YOE27m4dfSXoJbW-10" value="" style="ellipse;whiteSpace=wrap;html=1;align=center;aspect=fixed;fillColor=none;strokeColor=none;resizable=0;perimeter=centerPerimeter;rotatable=0;allowArrows=0;points=[];outlineConnect=1;" vertex="1" parent="1">
          <mxGeometry x="50" y="500" width="10" height="10" as="geometry" />
        </mxCell>
        <mxCell id="CNBk-YOE27m4dfSXoJbW-11" value="" style="rounded=0;orthogonalLoop=1;jettySize=auto;html=1;endArrow=halfCircle;endFill=0;endSize=6;strokeWidth=1;sketch=0;fontSize=12;curved=1;exitX=-0.003;exitY=0.687;exitDx=0;exitDy=0;exitPerimeter=0;" edge="1" parent="1" source="CNBk-YOE27m4dfSXoJbW-3">
          <mxGeometry relative="1" as="geometry">
            <mxPoint x="240" y="290" as="sourcePoint" />
            <mxPoint x="180" y="290" as="targetPoint" />
          </mxGeometry>
        </mxCell>
        <mxCell id="CNBk-YOE27m4dfSXoJbW-12" value="EnvironmentManager" style="edgeLabel;html=1;align=center;verticalAlign=middle;resizable=0;points=[];" vertex="1" connectable="0" parent="CNBk-YOE27m4dfSXoJbW-11">
          <mxGeometry x="0.72" y="2" relative="1" as="geometry">
            <mxPoint x="-69" y="-2" as="offset" />
          </mxGeometry>
        </mxCell>
        <mxCell id="CNBk-YOE27m4dfSXoJbW-13" value="" style="rounded=0;orthogonalLoop=1;jettySize=auto;html=1;endArrow=halfCircle;endFill=0;endSize=6;strokeWidth=1;sketch=0;fontSize=12;curved=1;exitX=0.002;exitY=0.193;exitDx=0;exitDy=0;exitPerimeter=0;" edge="1" parent="1" source="CNBk-YOE27m4dfSXoJbW-5">
          <mxGeometry relative="1" as="geometry">
            <mxPoint x="240" y="410" as="sourcePoint" />
            <mxPoint x="180" y="410" as="targetPoint" />
          </mxGeometry>
        </mxCell>
        <mxCell id="CNBk-YOE27m4dfSXoJbW-14" value="CyberSecurityManager" style="edgeLabel;html=1;align=center;verticalAlign=middle;resizable=0;points=[];" vertex="1" connectable="0" parent="CNBk-YOE27m4dfSXoJbW-13">
          <mxGeometry x="0.72" y="2" relative="1" as="geometry">
            <mxPoint x="-68" y="-2" as="offset" />
          </mxGeometry>
        </mxCell>
        <mxCell id="CNBk-YOE27m4dfSXoJbW-15" value="" style="rounded=0;orthogonalLoop=1;jettySize=auto;html=1;endArrow=halfCircle;endFill=0;endSize=6;strokeWidth=1;sketch=0;fontSize=12;curved=1;exitX=-0.008;exitY=0.656;exitDx=0;exitDy=0;exitPerimeter=0;" edge="1" parent="1" source="CNBk-YOE27m4dfSXoJbW-5">
          <mxGeometry relative="1" as="geometry">
            <mxPoint x="239" y="455" as="sourcePoint" />
            <mxPoint x="180" y="456" as="targetPoint" />
          </mxGeometry>
        </mxCell>
        <mxCell id="CNBk-YOE27m4dfSXoJbW-16" value="EnvironmentManager" style="edgeLabel;html=1;align=center;verticalAlign=middle;resizable=0;points=[];" vertex="1" connectable="0" parent="CNBk-YOE27m4dfSXoJbW-15">
          <mxGeometry x="0.72" y="2" relative="1" as="geometry">
            <mxPoint x="-69" y="-2" as="offset" />
          </mxGeometry>
        </mxCell>
        <mxCell id="CNBk-YOE27m4dfSXoJbW-17" value="" style="rounded=0;orthogonalLoop=1;jettySize=auto;html=1;endArrow=halfCircle;endFill=0;endSize=6;strokeWidth=1;sketch=0;fontSize=12;curved=1;exitX=0.005;exitY=0.338;exitDx=0;exitDy=0;exitPerimeter=0;" edge="1" parent="1" source="CNBk-YOE27m4dfSXoJbW-7">
          <mxGeometry relative="1" as="geometry">
            <mxPoint x="240" y="714.58" as="sourcePoint" />
            <mxPoint x="182" y="714.58" as="targetPoint" />
          </mxGeometry>
        </mxCell>
        <mxCell id="CNBk-YOE27m4dfSXoJbW-18" value="EnvironmentManager" style="edgeLabel;html=1;align=center;verticalAlign=middle;resizable=0;points=[];" vertex="1" connectable="0" parent="CNBk-YOE27m4dfSXoJbW-17">
          <mxGeometry x="0.72" y="2" relative="1" as="geometry">
            <mxPoint x="-69" y="-2" as="offset" />
          </mxGeometry>
        </mxCell>
        <mxCell id="CNBk-YOE27m4dfSXoJbW-19" value="driver_index" style="swimlane;fontStyle=0;childLayout=stackLayout;horizontal=1;startSize=30;horizontalStack=0;resizeParent=1;resizeParentMax=0;resizeLast=0;collapsible=1;marginBottom=0;whiteSpace=wrap;html=1;" vertex="1" parent="1">
          <mxGeometry x="680" y="190" width="230" height="130" as="geometry" />
        </mxCell>
        <mxCell id="CNBk-YOE27m4dfSXoJbW-20" value="Display of the controls for the players. Forwarding of control commands. Display of vehicle and game information.&amp;nbsp;" style="text;strokeColor=none;fillColor=none;align=left;verticalAlign=middle;spacingLeft=4;spacingRight=4;overflow=hidden;points=[[0,0.5],[1,0.5]];portConstraint=eastwest;rotatable=0;whiteSpace=wrap;html=1;" vertex="1" parent="CNBk-YOE27m4dfSXoJbW-19">
          <mxGeometry y="30" width="230" height="100" as="geometry" />
        </mxCell>
        <mxCell id="CNBk-YOE27m4dfSXoJbW-21" value="" style="endArrow=none;html=1;rounded=0;" edge="1" parent="1" source="CNBk-YOE27m4dfSXoJbW-2" target="CNBk-YOE27m4dfSXoJbW-19">
          <mxGeometry width="50" height="50" relative="1" as="geometry">
            <mxPoint x="420" y="550" as="sourcePoint" />
            <mxPoint x="470" y="500" as="targetPoint" />
          </mxGeometry>
        </mxCell>
        <mxCell id="CNBk-YOE27m4dfSXoJbW-22" value="" style="endArrow=none;dashed=1;html=1;rounded=0;entryX=0.5;entryY=0.948;entryDx=0;entryDy=0;entryPerimeter=0;" edge="1" parent="1" target="CNBk-YOE27m4dfSXoJbW-1">
          <mxGeometry width="50" height="50" relative="1" as="geometry">
            <mxPoint x="600" y="140" as="sourcePoint" />
            <mxPoint x="-120" y="290" as="targetPoint" />
          </mxGeometry>
        </mxCell>
        <mxCell id="CNBk-YOE27m4dfSXoJbW-23" value="Server" style="text;html=1;align=center;verticalAlign=middle;whiteSpace=wrap;rounded=0;" vertex="1" parent="1">
          <mxGeometry x="325" y="130" width="60" height="30" as="geometry" />
        </mxCell>
        <mxCell id="CNBk-YOE27m4dfSXoJbW-24" value="Client" style="text;html=1;align=center;verticalAlign=middle;whiteSpace=wrap;rounded=0;" vertex="1" parent="1">
          <mxGeometry x="765" y="130" width="60" height="30" as="geometry" />
        </mxCell>
        <mxCell id="CNBk-YOE27m4dfSXoJbW-25" value="staff_control" style="swimlane;fontStyle=0;childLayout=stackLayout;horizontal=1;startSize=30;horizontalStack=0;resizeParent=1;resizeParentMax=0;resizeLast=0;collapsible=1;marginBottom=0;whiteSpace=wrap;html=1;" vertex="1" parent="1">
          <mxGeometry x="680" y="360" width="230" height="130" as="geometry" />
        </mxCell>
        <mxCell id="CNBk-YOE27m4dfSXoJbW-26" value="Display of the control elements for the operator. Forwarding of control commands. Display of vehicles and players.&amp;nbsp;" style="text;strokeColor=none;fillColor=none;align=left;verticalAlign=middle;spacingLeft=4;spacingRight=4;overflow=hidden;points=[[0,0.5],[1,0.5]];portConstraint=eastwest;rotatable=0;whiteSpace=wrap;html=1;" vertex="1" parent="CNBk-YOE27m4dfSXoJbW-25">
          <mxGeometry y="30" width="230" height="100" as="geometry" />
        </mxCell>
        <mxCell id="CNBk-YOE27m4dfSXoJbW-27" value="" style="endArrow=none;html=1;rounded=0;" edge="1" parent="1" source="CNBk-YOE27m4dfSXoJbW-4" target="CNBk-YOE27m4dfSXoJbW-25">
          <mxGeometry width="50" height="50" relative="1" as="geometry">
            <mxPoint x="420" y="450" as="sourcePoint" />
            <mxPoint x="470" y="400" as="targetPoint" />
          </mxGeometry>
        </mxCell>
        <mxCell id="CNBk-YOE27m4dfSXoJbW-28" value="car_map" style="swimlane;fontStyle=0;childLayout=stackLayout;horizontal=1;startSize=30;horizontalStack=0;resizeParent=1;resizeParentMax=0;resizeLast=0;collapsible=1;marginBottom=0;whiteSpace=wrap;html=1;" vertex="1" parent="1">
          <mxGeometry x="680" y="650" width="230" height="130" as="geometry" />
        </mxCell>
        <mxCell id="CNBk-YOE27m4dfSXoJbW-29" value="Display virtual track and vehicles on it." style="text;strokeColor=none;fillColor=none;align=left;verticalAlign=middle;spacingLeft=4;spacingRight=4;overflow=hidden;points=[[0,0.5],[1,0.5]];portConstraint=eastwest;rotatable=0;whiteSpace=wrap;html=1;" vertex="1" parent="CNBk-YOE27m4dfSXoJbW-28">
          <mxGeometry y="30" width="230" height="100" as="geometry" />
        </mxCell>
        <mxCell id="CNBk-YOE27m4dfSXoJbW-30" value="" style="endArrow=none;html=1;rounded=0;" edge="1" parent="1" source="CNBk-YOE27m4dfSXoJbW-6" target="CNBk-YOE27m4dfSXoJbW-28">
          <mxGeometry width="50" height="50" relative="1" as="geometry">
            <mxPoint x="420" y="570" as="sourcePoint" />
            <mxPoint x="470" y="520" as="targetPoint" />
          </mxGeometry>
        </mxCell>
        <mxCell id="CNBk-YOE27m4dfSXoJbW-31" value="staff_login" style="swimlane;fontStyle=0;childLayout=stackLayout;horizontal=1;startSize=30;horizontalStack=0;resizeParent=1;resizeParentMax=0;resizeLast=0;collapsible=1;marginBottom=0;whiteSpace=wrap;html=1;" vertex="1" parent="1">
          <mxGeometry x="680" y="500" width="230" height="130" as="geometry" />
        </mxCell>
        <mxCell id="CNBk-YOE27m4dfSXoJbW-32" value="Display of the control elements for the operator. Forwarding of control commands. Display of vehicles and players.&amp;nbsp;" style="text;strokeColor=none;fillColor=none;align=left;verticalAlign=middle;spacingLeft=4;spacingRight=4;overflow=hidden;points=[[0,0.5],[1,0.5]];portConstraint=eastwest;rotatable=0;whiteSpace=wrap;html=1;" vertex="1" parent="CNBk-YOE27m4dfSXoJbW-31">
          <mxGeometry y="30" width="230" height="100" as="geometry" />
        </mxCell>
        <mxCell id="CNBk-YOE27m4dfSXoJbW-33" value="" style="endArrow=none;html=1;rounded=0;edgeStyle=orthogonalEdgeStyle;" edge="1" parent="1" source="CNBk-YOE27m4dfSXoJbW-31" target="CNBk-YOE27m4dfSXoJbW-4">
          <mxGeometry width="50" height="50" relative="1" as="geometry">
            <mxPoint x="420" y="550" as="sourcePoint" />
            <mxPoint x="470" y="500" as="targetPoint" />
            <Array as="points">
              <mxPoint x="540" y="565" />
              <mxPoint x="540" y="460" />
            </Array>
          </mxGeometry>
        </mxCell>
      </root>
    </mxGraphModel>
  </diagram>
</mxfile>
